<svg width="24" height="22" viewBox="0 0 24 22" fill="none" xmlns="http://www.w3.org/2000/svg">
<path d="M12.0215 20.1509L19.9498 12.2814L21.0194 11.2198C23.3604 8.89619 23.477 5.27064 21.2808 3.09079C19.0847 0.91094 15.432 1.02667 13.0911 3.35028L12.0215 4.41192" stroke="#909090" stroke-width="2" stroke-linecap="square"/>
<path d="M12.0214 4.41191L10.9518 3.35028C9.7082 2.11586 8.09439 1.50457 6.52541 1.52954C5.14102 1.55158 3.79158 2.06898 2.76214 3.09079C0.565989 5.27064 0.682586 8.89618 3.02357 11.2198L4.09314 12.2814L12.0214 20.1509" stroke="#909090" stroke-width="2" stroke-linecap="square"/>
<path d="M12.0215 20.1509L19.9498 12.2814L21.0194 11.2198C23.3604 8.89619 23.477 5.27064 21.2808 3.09079C19.0847 0.91094 15.432 1.02667 13.0911 3.35028" stroke="#909090" stroke-width="2" stroke-linecap="square"/>
</svg>
